<mxfile host="app.diagrams.net" agent="Mozilla/5.0 (Windows NT 10.0; Win64; x64) AppleWebKit/537.36 (KHTML, like Gecko) Chrome/136.0.0.0 Safari/537.36" version="27.0.6">
  <diagram name="Page-1" id="LjBGL_8zvs6t9Xks_KDX">
    <mxGraphModel dx="2022" dy="1072" grid="1" gridSize="10" guides="1" tooltips="1" connect="1" arrows="1" fold="1" page="1" pageScale="1" pageWidth="850" pageHeight="1100" math="0" shadow="0">
      <root>
        <mxCell id="0" />
        <mxCell id="1" parent="0" />
        <mxCell id="uytIzmUIV8ZmoUYYvY6v-44" value="" style="shape=ext;double=1;rounded=1;whiteSpace=wrap;html=1;direction=south;fillColor=#bac8d3;strokeColor=#23445d;" parent="1" vertex="1">
          <mxGeometry x="523.3100000000001" y="10" width="207.55" height="918.94" as="geometry" />
        </mxCell>
        <mxCell id="uytIzmUIV8ZmoUYYvY6v-30" value="" style="shape=ext;double=1;rounded=1;whiteSpace=wrap;html=1;direction=south;fillColor=#bac8d3;strokeColor=#23445d;" parent="1" vertex="1">
          <mxGeometry x="165.28698113207548" y="375.0588235294118" width="207.54716981132077" height="553.8823529411766" as="geometry" />
        </mxCell>
        <mxCell id="uytIzmUIV8ZmoUYYvY6v-27" value="" style="shape=ext;double=1;rounded=1;whiteSpace=wrap;html=1;direction=south;fillColor=#bac8d3;strokeColor=#23445d;" parent="1" vertex="1">
          <mxGeometry x="165.28698113207548" y="10" width="207.54716981132077" height="302.1176470588236" as="geometry" />
        </mxCell>
        <mxCell id="uytIzmUIV8ZmoUYYvY6v-8" value="" style="edgeStyle=orthogonalEdgeStyle;rounded=0;orthogonalLoop=1;jettySize=auto;html=1;" parent="1" source="uytIzmUIV8ZmoUYYvY6v-5" target="uytIzmUIV8ZmoUYYvY6v-7" edge="1">
          <mxGeometry relative="1" as="geometry" />
        </mxCell>
        <mxCell id="uytIzmUIV8ZmoUYYvY6v-5" value="&lt;font style=&quot;font-size: 17px;&quot;&gt;Detected OBB&lt;/font&gt;" style="whiteSpace=wrap;html=1;rounded=1;fillColor=#f8cecc;strokeColor=#b85450;" parent="1" vertex="1">
          <mxGeometry x="184.06" y="626.82" width="170" height="75.53" as="geometry" />
        </mxCell>
        <mxCell id="uytIzmUIV8ZmoUYYvY6v-7" value="&lt;font style=&quot;font-size: 16px;&quot;&gt;Class wise&lt;/font&gt;&lt;div&gt;&lt;font style=&quot;font-size: 16px;&quot;&gt;Center, Height,&lt;/font&gt;&lt;/div&gt;&lt;div&gt;&lt;font style=&quot;font-size: 16px;&quot;&gt;Width and rotation angle extraction&lt;/font&gt;&lt;/div&gt;" style="whiteSpace=wrap;html=1;rounded=1;fillColor=#d0cee2;strokeColor=#56517e;" parent="1" vertex="1">
          <mxGeometry x="186.04169811320756" y="775.6447058823532" width="166.03773584905662" height="100.70588235294116" as="geometry" />
        </mxCell>
        <mxCell id="uytIzmUIV8ZmoUYYvY6v-14" value="&lt;font style=&quot;font-size: 20px;&quot;&gt;Model Training Phase&lt;/font&gt;" style="text;html=1;align=center;verticalAlign=middle;resizable=0;points=[];autosize=1;strokeColor=none;fillColor=none;rotation=270;fontSize=18;" parent="1" vertex="1">
          <mxGeometry x="20.003962264150942" y="135.8823529411765" width="220" height="40" as="geometry" />
        </mxCell>
        <mxCell id="uytIzmUIV8ZmoUYYvY6v-35" value="" style="edgeStyle=orthogonalEdgeStyle;rounded=0;orthogonalLoop=1;jettySize=auto;html=1;exitX=0.5;exitY=0;exitDx=0;exitDy=0;" parent="1" source="uytIzmUIV8ZmoUYYvY6v-36" target="uytIzmUIV8ZmoUYYvY6v-34" edge="1">
          <mxGeometry relative="1" as="geometry">
            <mxPoint x="627.0794339622643" y="752.7058823529414" as="sourcePoint" />
          </mxGeometry>
        </mxCell>
        <mxCell id="uytIzmUIV8ZmoUYYvY6v-61" value="" style="edgeStyle=orthogonalEdgeStyle;rounded=0;orthogonalLoop=1;jettySize=auto;html=1;" parent="1" source="uytIzmUIV8ZmoUYYvY6v-16" target="uytIzmUIV8ZmoUYYvY6v-60" edge="1">
          <mxGeometry relative="1" as="geometry" />
        </mxCell>
        <mxCell id="uytIzmUIV8ZmoUYYvY6v-16" value="&lt;font style=&quot;font-size: 18px;&quot;&gt;&amp;nbsp;Training&amp;nbsp;&lt;/font&gt;&lt;div&gt;&lt;span style=&quot;background-color: transparent; color: light-dark(rgb(0, 0, 0), rgb(255, 255, 255));&quot;&gt;&lt;font style=&quot;font-size: 19px;&quot;&gt;&amp;nbsp;Dataset&amp;nbsp;&lt;/font&gt;&lt;/span&gt;&lt;/div&gt;" style="shape=cylinder3;whiteSpace=wrap;html=1;boundedLbl=1;backgroundOutline=1;size=15;fillColor=#fff2cc;strokeColor=#d6b656;" parent="1" vertex="1">
          <mxGeometry x="221.56" y="30" width="95" height="80.71" as="geometry" />
        </mxCell>
        <mxCell id="uytIzmUIV8ZmoUYYvY6v-17" value="&lt;font style=&quot;font-size: 16px;&quot;&gt;&amp;nbsp;Reference&amp;nbsp;&lt;/font&gt;&lt;div&gt;&lt;font style=&quot;font-size: 16px;&quot;&gt;Dataset&lt;/font&gt;&lt;/div&gt;" style="shape=cylinder3;whiteSpace=wrap;html=1;boundedLbl=1;backgroundOutline=1;size=15;fillColor=#fff2cc;strokeColor=#d6b656;" parent="1" vertex="1">
          <mxGeometry x="584.0611320754718" y="970.0047058823532" width="83.01886792452831" height="100.70588235294116" as="geometry" />
        </mxCell>
        <mxCell id="uytIzmUIV8ZmoUYYvY6v-19" value="&lt;span style=&quot;font-size: 16px;&quot;&gt;IdC&lt;/span&gt;&lt;div&gt;&lt;span style=&quot;font-size: 16px;&quot;&gt;Dataset&lt;/span&gt;&lt;/div&gt;" style="shape=cylinder3;whiteSpace=wrap;html=1;boundedLbl=1;backgroundOutline=1;size=15;fillColor=#fff2cc;strokeColor=#d6b656;" parent="1" vertex="1">
          <mxGeometry x="461.05509433962266" y="970.0041176470587" width="83.01886792452831" height="100.70588235294116" as="geometry" />
        </mxCell>
        <mxCell id="uytIzmUIV8ZmoUYYvY6v-20" value="&lt;span style=&quot;font-size: 17px;&quot;&gt;DoCM&lt;/span&gt;&lt;div&gt;&lt;span style=&quot;font-size: 17px;&quot;&gt;Dataset&lt;/span&gt;&lt;/div&gt;" style="shape=cylinder3;whiteSpace=wrap;html=1;boundedLbl=1;backgroundOutline=1;size=15;fillColor=#fff2cc;strokeColor=#d6b656;" parent="1" vertex="1">
          <mxGeometry x="705.5722641509435" y="970.0041176470587" width="83.01886792452831" height="100.70588235294116" as="geometry" />
        </mxCell>
        <mxCell id="uytIzmUIV8ZmoUYYvY6v-21" value="&lt;font style=&quot;font-size: 18px;&quot;&gt;OBB&amp;nbsp;&lt;/font&gt;&lt;div&gt;&lt;font style=&quot;font-size: 18px;&quot;&gt;Detection&lt;/font&gt;&lt;div&gt;&lt;font style=&quot;font-size: 18px;&quot;&gt;Model&lt;/font&gt;&lt;/div&gt;&lt;/div&gt;" style="rhombus;whiteSpace=wrap;html=1;fillColor=#d5e8d4;strokeColor=#82b366;" parent="1" vertex="1">
          <mxGeometry x="217.17377358490566" y="409.9952941176471" width="103.77358490566039" height="139.8678823529412" as="geometry" />
        </mxCell>
        <mxCell id="uytIzmUIV8ZmoUYYvY6v-24" value="&lt;font style=&quot;font-size: 17px;&quot;&gt;Arbitrary Input&lt;/font&gt;&lt;div&gt;&lt;font style=&quot;font-size: 17px;&quot;&gt;&amp;nbsp;Image&lt;/font&gt;&lt;/div&gt;" style="text;html=1;align=center;verticalAlign=middle;resizable=0;points=[];autosize=1;strokeColor=none;fillColor=none;" parent="1" vertex="1">
          <mxGeometry x="35.29" y="421.7094117647059" width="130" height="50" as="geometry" />
        </mxCell>
        <mxCell id="uytIzmUIV8ZmoUYYvY6v-29" value="" style="endArrow=classic;html=1;rounded=0;exitX=0.5;exitY=1;exitDx=0;exitDy=0;exitPerimeter=0;entryX=0.5;entryY=0;entryDx=0;entryDy=0;" parent="1" source="uytIzmUIV8ZmoUYYvY6v-21" target="uytIzmUIV8ZmoUYYvY6v-5" edge="1">
          <mxGeometry width="50" height="50" relative="1" as="geometry">
            <mxPoint x="352.0794339622642" y="538.7058823529412" as="sourcePoint" />
            <mxPoint x="403.96622641509435" y="475.764705882353" as="targetPoint" />
          </mxGeometry>
        </mxCell>
        <mxCell id="uytIzmUIV8ZmoUYYvY6v-32" value="" style="endArrow=classic;html=1;rounded=0;strokeWidth=1;arcSize=0;" parent="1" target="uytIzmUIV8ZmoUYYvY6v-21" edge="1">
          <mxGeometry width="50" height="50" relative="1" as="geometry">
            <mxPoint x="35.57" y="480" as="sourcePoint" />
            <mxPoint x="331.3247169811321" y="538.7058823529412" as="targetPoint" />
          </mxGeometry>
        </mxCell>
        <mxCell id="uytIzmUIV8ZmoUYYvY6v-33" value="&lt;font style=&quot;font-size: 20px;&quot;&gt;Teeth Detection Phase&lt;/font&gt;" style="text;html=1;align=center;verticalAlign=middle;resizable=0;points=[];autosize=1;strokeColor=none;fillColor=none;rotation=270;fontSize=18;" parent="1" vertex="1">
          <mxGeometry x="20.003962264150942" y="626.8235294117648" width="220" height="40" as="geometry" />
        </mxCell>
        <mxCell id="uytIzmUIV8ZmoUYYvY6v-34" value="&lt;font style=&quot;font-size: 17px;&quot;&gt;Teeth&amp;nbsp;&lt;/font&gt;&lt;div&gt;&lt;font style=&quot;font-size: 17px;&quot;&gt;Detection&lt;/font&gt;&lt;/div&gt;&lt;div&gt;&lt;font style=&quot;font-size: 17px;&quot;&gt;Phase&lt;/font&gt;&lt;/div&gt;" style="rhombus;whiteSpace=wrap;html=1;fillColor=#d5e8d4;strokeColor=#82b366;" parent="1" vertex="1">
          <mxGeometry x="572.6083018867926" y="619.9952941176472" width="108.96226415094343" height="132.1764705882353" as="geometry" />
        </mxCell>
        <mxCell id="uytIzmUIV8ZmoUYYvY6v-36" value="&lt;font style=&quot;font-size: 17px;&quot;&gt;SSIM&lt;/font&gt;" style="whiteSpace=wrap;html=1;rounded=1;fillColor=#cce5ff;strokeColor=#36393d;" parent="1" vertex="1">
          <mxGeometry x="544.07" y="822.12" width="166.04" height="50" as="geometry" />
        </mxCell>
        <mxCell id="uytIzmUIV8ZmoUYYvY6v-37" value="&lt;font style=&quot;font-size: 17px;&quot;&gt;Shifting OBBs for Best&lt;/font&gt;&lt;div&gt;&lt;font style=&quot;font-size: 17px;&quot;&gt;Feature&amp;nbsp;&lt;span style=&quot;background-color: transparent; color: light-dark(rgb(0, 0, 0), rgb(255, 255, 255));&quot;&gt;Matching&lt;/span&gt;&lt;/font&gt;&lt;/div&gt;" style="whiteSpace=wrap;html=1;rounded=1;fillColor=#f9f7ed;strokeColor=#36393d;" parent="1" vertex="1">
          <mxGeometry x="537.09" y="460" width="180" height="100.71" as="geometry" />
        </mxCell>
        <mxCell id="uytIzmUIV8ZmoUYYvY6v-40" value="&lt;font style=&quot;font-size: 17px;&quot;&gt;RIoU Calculation&lt;/font&gt;" style="whiteSpace=wrap;html=1;rounded=1;fillColor=#b1ddf0;strokeColor=#10739e;" parent="1" vertex="1">
          <mxGeometry x="535.57" y="210" width="180" height="62.94" as="geometry" />
        </mxCell>
        <mxCell id="uytIzmUIV8ZmoUYYvY6v-42" value="&lt;font style=&quot;font-size: 16px;&quot;&gt;Identification&lt;/font&gt;&lt;div&gt;&lt;font style=&quot;font-size: 16px;&quot;&gt;Using Threshold&lt;/font&gt;&lt;/div&gt;&lt;div&gt;&lt;font style=&quot;font-size: 16px;&quot;&gt;Stepping&lt;/font&gt;&lt;/div&gt;" style="rounded=1;whiteSpace=wrap;html=1;fillColor=#ffcc99;strokeColor=#36393d;" parent="1" vertex="1">
          <mxGeometry x="535.57" y="47.76" width="180" height="100.71" as="geometry" />
        </mxCell>
        <mxCell id="uytIzmUIV8ZmoUYYvY6v-45" value="&lt;font style=&quot;font-size: 20px;&quot;&gt;Human Identification Phase&lt;/font&gt;" style="text;html=1;align=center;verticalAlign=middle;resizable=0;points=[];autosize=1;strokeColor=none;fillColor=none;rotation=90;fontSize=18;" parent="1" vertex="1">
          <mxGeometry x="632.2681132075473" y="431.7058823529413" width="270" height="40" as="geometry" />
        </mxCell>
        <mxCell id="uytIzmUIV8ZmoUYYvY6v-46" value="" style="endArrow=classic;html=1;rounded=0;exitX=0.5;exitY=0;exitDx=0;exitDy=0;exitPerimeter=0;entryX=0.297;entryY=1.013;entryDx=0;entryDy=0;entryPerimeter=0;" parent="1" source="uytIzmUIV8ZmoUYYvY6v-19" target="uytIzmUIV8ZmoUYYvY6v-36" edge="1">
          <mxGeometry width="50" height="50" relative="1" as="geometry">
            <mxPoint x="466.2303773584906" y="803.0588235294118" as="sourcePoint" />
            <mxPoint x="518.1171698113209" y="740.1176470588236" as="targetPoint" />
          </mxGeometry>
        </mxCell>
        <mxCell id="uytIzmUIV8ZmoUYYvY6v-49" value="" style="endArrow=classic;html=1;rounded=0;exitX=0.5;exitY=0;exitDx=0;exitDy=0;exitPerimeter=0;entryX=0.75;entryY=1;entryDx=0;entryDy=0;" parent="1" source="uytIzmUIV8ZmoUYYvY6v-20" target="uytIzmUIV8ZmoUYYvY6v-36" edge="1">
          <mxGeometry width="50" height="50" relative="1" as="geometry">
            <mxPoint x="570.003962264151" y="891.1764705882354" as="sourcePoint" />
            <mxPoint x="621.8907547169813" y="828.2352941176472" as="targetPoint" />
          </mxGeometry>
        </mxCell>
        <mxCell id="uytIzmUIV8ZmoUYYvY6v-55" value="" style="endArrow=classic;html=1;rounded=0;entryX=0.5;entryY=1;entryDx=0;entryDy=0;" parent="1" source="uytIzmUIV8ZmoUYYvY6v-40" target="uytIzmUIV8ZmoUYYvY6v-42" edge="1">
          <mxGeometry width="50" height="50" relative="1" as="geometry">
            <mxPoint x="627.0794339622643" y="173.64705882352945" as="sourcePoint" />
            <mxPoint x="626.726603773585" y="135.8823529411765" as="targetPoint" />
          </mxGeometry>
        </mxCell>
        <mxCell id="uytIzmUIV8ZmoUYYvY6v-60" value="&lt;font style=&quot;font-size: 20px;&quot;&gt;Model&lt;/font&gt;&lt;div&gt;&lt;font style=&quot;font-size: 20px;&quot;&gt;Training&lt;/font&gt;&lt;/div&gt;" style="rhombus;whiteSpace=wrap;html=1;fillColor=#d5e8d4;strokeColor=#82b366;" parent="1" vertex="1">
          <mxGeometry x="201.6077358490566" y="154.76470588235296" width="134.9056603773585" height="144.76470588235296" as="geometry" />
        </mxCell>
        <mxCell id="uytIzmUIV8ZmoUYYvY6v-62" value="&lt;font style=&quot;font-size: 13px;&quot;&gt;Scaled Input&lt;/font&gt;&lt;div&gt;&lt;font style=&quot;font-size: 13px;&quot;&gt;Image&lt;/font&gt;&lt;/div&gt;" style="text;html=1;align=center;verticalAlign=middle;resizable=0;points=[];autosize=1;strokeColor=none;fillColor=none;fontSize=10;rotation=0;" parent="1" vertex="1">
          <mxGeometry x="630.8594339622642" y="775.6476470588236" width="100" height="40" as="geometry" />
        </mxCell>
        <mxCell id="uytIzmUIV8ZmoUYYvY6v-65" value="&lt;div&gt;&lt;font style=&quot;font-size: 17px;&quot;&gt;Rotated&lt;/font&gt;&lt;/div&gt;&lt;font style=&quot;font-size: 17px;&quot;&gt;Corners Detection&lt;/font&gt;" style="whiteSpace=wrap;html=1;rounded=1;fillColor=#f8cecc;strokeColor=#b85450;" parent="1" vertex="1">
          <mxGeometry x="537.09" y="330" width="180" height="62.94" as="geometry" />
        </mxCell>
        <mxCell id="uytIzmUIV8ZmoUYYvY6v-78" value="" style="edgeStyle=elbowEdgeStyle;elbow=horizontal;endArrow=classic;html=1;curved=0;rounded=0;endSize=8;startSize=8;entryX=0.543;entryY=0.99;entryDx=0;entryDy=0;entryPerimeter=0;" parent="1" target="uytIzmUIV8ZmoUYYvY6v-44" edge="1">
          <mxGeometry width="50" height="50" relative="1" as="geometry">
            <mxPoint x="275.57" y="960" as="sourcePoint" />
            <mxPoint x="523.3145000000001" y="549.9977800000003" as="targetPoint" />
            <Array as="points">
              <mxPoint x="457.65" y="610.58" />
              <mxPoint x="457.93301886792455" y="916.9329411764708" />
            </Array>
          </mxGeometry>
        </mxCell>
        <mxCell id="uytIzmUIV8ZmoUYYvY6v-80" value="" style="endArrow=none;html=1;rounded=0;entryX=1.002;entryY=0.498;entryDx=0;entryDy=0;entryPerimeter=0;" parent="1" edge="1">
          <mxGeometry width="50" height="50" relative="1" as="geometry">
            <mxPoint x="275.57" y="960" as="sourcePoint" />
            <mxPoint x="275.9856603773584" y="928.9389411764706" as="targetPoint" />
          </mxGeometry>
        </mxCell>
        <mxCell id="uytIzmUIV8ZmoUYYvY6v-88" value="" style="endArrow=classic;html=1;rounded=0;exitX=0.999;exitY=0.517;exitDx=0;exitDy=0;exitPerimeter=0;entryX=0.001;entryY=0.518;entryDx=0;entryDy=0;entryPerimeter=0;" parent="1" source="uytIzmUIV8ZmoUYYvY6v-27" target="uytIzmUIV8ZmoUYYvY6v-30" edge="1">
          <mxGeometry width="50" height="50" relative="1" as="geometry">
            <mxPoint x="372.8341509433963" y="400.2352941176471" as="sourcePoint" />
            <mxPoint x="424.72094339622646" y="337.2941176470589" as="targetPoint" />
          </mxGeometry>
        </mxCell>
        <mxCell id="P51VU3Y_3yAgPYahG5fJ-1" value="" style="edgeStyle=orthogonalEdgeStyle;rounded=0;orthogonalLoop=1;jettySize=auto;html=1;exitX=0.497;exitY=0.009;exitDx=0;exitDy=0;entryX=0.5;entryY=1;entryDx=0;entryDy=0;exitPerimeter=0;" edge="1" parent="1" source="uytIzmUIV8ZmoUYYvY6v-34" target="uytIzmUIV8ZmoUYYvY6v-37">
          <mxGeometry relative="1" as="geometry">
            <mxPoint x="626.84" y="626.83" as="sourcePoint" />
            <mxPoint x="626.84" y="563.83" as="targetPoint" />
            <Array as="points">
              <mxPoint x="626.57" y="574" />
              <mxPoint x="627.57" y="574" />
            </Array>
          </mxGeometry>
        </mxCell>
        <mxCell id="P51VU3Y_3yAgPYahG5fJ-4" value="" style="edgeStyle=orthogonalEdgeStyle;rounded=0;orthogonalLoop=1;jettySize=auto;html=1;exitX=0.5;exitY=0;exitDx=0;exitDy=0;entryX=0.5;entryY=1;entryDx=0;entryDy=0;" edge="1" parent="1">
          <mxGeometry relative="1" as="geometry">
            <mxPoint x="626.71" y="458.77000000000004" as="sourcePoint" />
            <mxPoint x="627.44" y="392.94" as="targetPoint" />
            <Array as="points">
              <mxPoint x="626.44" y="405.94" />
              <mxPoint x="627.44" y="405.94" />
            </Array>
          </mxGeometry>
        </mxCell>
        <mxCell id="P51VU3Y_3yAgPYahG5fJ-7" value="" style="edgeStyle=orthogonalEdgeStyle;rounded=0;orthogonalLoop=1;jettySize=auto;html=1;" edge="1" parent="1">
          <mxGeometry relative="1" as="geometry">
            <mxPoint x="626.57" y="330" as="sourcePoint" />
            <mxPoint x="627.5100000000001" y="272.94" as="targetPoint" />
            <Array as="points">
              <mxPoint x="626.57" y="273" />
              <mxPoint x="627.57" y="273" />
            </Array>
          </mxGeometry>
        </mxCell>
        <mxCell id="P51VU3Y_3yAgPYahG5fJ-12" value="" style="endArrow=classic;html=1;rounded=0;entryX=0.5;entryY=1;entryDx=0;entryDy=0;" edge="1" parent="1" target="uytIzmUIV8ZmoUYYvY6v-36">
          <mxGeometry width="50" height="50" relative="1" as="geometry">
            <mxPoint x="627.57" y="970" as="sourcePoint" />
            <mxPoint x="615.5400000000001" y="876.23" as="targetPoint" />
          </mxGeometry>
        </mxCell>
        <mxCell id="P51VU3Y_3yAgPYahG5fJ-13" value="&lt;span style=&quot;font-size: 13px;&quot;&gt;Reference&amp;nbsp;&lt;/span&gt;&lt;div&gt;&lt;span style=&quot;font-size: 13px;&quot;&gt;Image&lt;/span&gt;&lt;/div&gt;" style="text;html=1;align=center;verticalAlign=middle;resizable=0;points=[];autosize=1;strokeColor=none;fillColor=none;fontSize=10;rotation=0;" vertex="1" parent="1">
          <mxGeometry x="535.5694339622643" y="775.6476470588236" width="90" height="40" as="geometry" />
        </mxCell>
      </root>
    </mxGraphModel>
  </diagram>
</mxfile>
